<svg width="64" height="64" viewBox="0 0 64 64" fill="none" xmlns="http://www.w3.org/2000/svg">
<rect width="64" height="64" rx="8" transform="matrix(-1 0 0 1 64 0)" fill="#CEE2BC"/>
<path d="M15.132 18.824C15.995 18.6089 16.7561 18.5256 17.5738 18.4934C17.4067 19.6682 15.9217 19.8068 15.132 18.824ZM30.6867 39.006C28.6697 37.6871 27.7356 39.317 25.1661 39.3435C23.6244 39.3594 21.5333 38.8376 18.9708 37.2083C21.0431 40.18 23.4805 41.8888 26.066 42.6323C31.0332 44.0605 32 41.5469 36.7874 43.1884C36.0703 42.0364 34.6258 41.4958 33.1749 41.205C31.7094 40.9114 30.694 41.2652 29.4996 40.736C28.4795 40.2715 28.5455 39.234 30.6867 39.006ZM30.5874 23.8491C31.6683 25.348 32.9017 26.4717 34.985 27.3861C37.7131 28.4931 40.482 28.6825 43.314 27.7056C45.5126 26.9473 47.0937 27.6882 47.9148 29.8229C48.0488 27.2384 46.6063 26.1107 45.3962 25.5236C42.8037 24.2659 39.9764 26.4866 36.8241 26.2158C34.7301 26.0358 32.8478 25.6006 30.5874 23.8491ZM39.4622 37.5509C38.9655 37.9835 38.1875 38.4102 37.7291 38.4498C37.7563 38.4987 37.7633 38.5231 37.7709 38.5231C40.2095 38.5239 42.9819 38.1635 45.1102 35.8702C46.5053 34.3669 46.6897 33.4902 49.362 33.9563C47.5466 32.5031 44.4896 32.767 42.3125 34.7292C41.4269 35.5275 40.7227 36.4909 39.4622 37.5509ZM32.8177 33.3569C35.4805 34.6934 38.8213 34.6719 41.626 32.8555C44.2598 31.0707 46.7901 32.406 46.992 32.0872C44.9978 30.686 43.0277 30.6684 41.1605 31.1528C37.5215 32.0079 37.3731 34.6001 32.8177 33.3569ZM39.0615 24.271C38.6064 24.2788 37.5752 24.628 36.2588 24.1854C34.1211 23.372 33.1559 20.9027 28.4331 20.9722C29.6654 22.7553 35.0365 26.4792 39.0615 24.271ZM54 37.5804C51.5938 36.9346 50.8955 33.3506 46.9959 35.7073C50.0791 35.5849 50.0791 39.5702 54 37.5804ZM38.3405 29.0829C33.6614 29.2148 30.1128 25.0533 27.4362 21.5025C24.0078 16.9545 16.9896 14.892 10 19.6129C10 19.6129 14.7175 18.681 15.3281 25.5543C15.6714 29.4175 15.3257 30.6364 16.7031 33.0534C20.4414 39.6134 26.5232 37.9885 26.5232 37.9885C23.1036 37.501 21.7448 35.1303 21.3438 33.254C21.1433 32.194 21.8418 30.9949 23.6013 31.0597C25.3906 31.1254 26.7459 33.2569 29.0276 35.8698C32.1744 39.8146 36.8725 38.1475 40.2191 35.1932C40.0487 34.6903 38.4452 35.492 36.8336 35.4731C34.2821 35.4433 31.9106 34.8592 30.1241 33.5951C26.5716 30.8334 26.2649 27.2108 29.2763 27.4602C30.6106 27.5391 31.759 29.2475 32.9596 29.7878C34.6783 30.5612 36.4147 30.3286 38.3405 29.083M39.5467 47.0513C37.9869 46.3307 38.2447 43.2943 33.1679 43.5956C36.2135 44.3396 36.5818 47.3382 39.5467 47.0513Z" fill="#294410"/>
</svg>
