<svg width="64" height="63" viewBox="0 0 64 63" fill="none" xmlns="http://www.w3.org/2000/svg">
<g opacity="0.7" filter="url(#filter0_f_1_484)">
<path d="M50.7507 16.016L46.3772 16.7872C45.9352 16.8652 45.6406 17.2879 45.7202 17.7299C45.7966 18.1702 46.216 18.4714 46.6596 18.3869L49.1003 17.9552L37.427 34.6305L25.9631 26.6039C25.5975 26.3439 25.0884 26.4366 24.8332 26.8038L11.6714 45.5993C11.4146 45.9681 11.5024 46.4724 11.8713 46.7291C12.0127 46.8299 12.1738 46.8783 12.3347 46.8783C12.5914 46.8783 12.8436 46.7582 13.0012 46.5324L25.6965 28.4003L37.1604 36.4237C37.3359 36.5488 37.5585 36.5976 37.7698 36.5602C37.981 36.5244 38.1699 36.4024 38.2934 36.2269L50.4333 18.8883L50.865 21.329C50.9332 21.7222 51.2764 22.0018 51.6648 22.0018C51.7119 22.0018 51.7573 21.9989 51.8044 21.9891C52.2464 21.9111 52.5442 21.4885 52.4646 21.0465L51.6902 16.673C51.6122 16.2326 51.1878 15.925 50.7507 16.016Z" fill="url(#paint0_linear_1_484)"/>
</g>
<path d="M50.7507 16.016L46.3772 16.7872C45.9352 16.8652 45.6406 17.2879 45.7202 17.7299C45.7966 18.1702 46.216 18.4714 46.6596 18.3869L49.1003 17.9552L37.427 34.6305L25.9631 26.6039C25.5975 26.3439 25.0884 26.4366 24.8332 26.8038L11.6714 45.5993C11.4146 45.9681 11.5024 46.4724 11.8713 46.7291C12.0127 46.8299 12.1738 46.8783 12.3347 46.8783C12.5914 46.8783 12.8436 46.7582 13.0012 46.5324L25.6965 28.4003L37.1604 36.4237C37.3359 36.5488 37.5585 36.5976 37.7698 36.5602C37.981 36.5244 38.1699 36.4024 38.2934 36.2269L50.4333 18.8883L50.865 21.329C50.9332 21.7222 51.2764 22.0018 51.6648 22.0018C51.7119 22.0018 51.7573 21.9989 51.8044 21.9891C52.2464 21.9111 52.5442 21.4885 52.4646 21.0465L51.6902 16.673C51.6122 16.2326 51.1878 15.925 50.7507 16.016Z" fill="url(#paint1_linear_1_484)"/>
<defs>
<filter id="filter0_f_1_484" x="-10" y="-10.5596" width="84" height="84" filterUnits="userSpaceOnUse" color-interpolation-filters="sRGB">
<feFlood flood-opacity="0" result="BackgroundImageFix"/>
<feBlend mode="normal" in="SourceGraphic" in2="BackgroundImageFix" result="shape"/>
<feGaussianBlur stdDeviation="8" result="effect1_foregroundBlur_1_484"/>
</filter>
<linearGradient id="paint0_linear_1_484" x1="11.5247" y1="31.4392" x2="46.6247" y2="31.4392" gradientUnits="userSpaceOnUse">
<stop stop-color="#000092"/>
<stop offset="1" stop-color="#FF00F3"/>
</linearGradient>
<linearGradient id="paint1_linear_1_484" x1="11.5247" y1="31.4392" x2="46.6247" y2="31.4392" gradientUnits="userSpaceOnUse">
<stop stop-color="#000092"/>
<stop offset="1" stop-color="#FF00F3"/>
</linearGradient>
</defs>
</svg>
