<svg width="42" height="43" viewBox="0 0 42 43" fill="none" xmlns="http://www.w3.org/2000/svg">
<path d="M39.5162 18.6931C39.5162 29.0141 31.144 37.3863 20.823 37.3863C10.4997 37.3863 2.12988 29.0141 2.12988 18.6931C2.12988 8.36986 10.4997 0 20.823 0C31.144 0 39.5162 8.36986 39.5162 18.6931Z" fill="#FFCC4D"/>
<path d="M30.007 18.8439C29.8318 18.6558 29.5701 18.6441 29.382 18.81C29.3434 18.8439 25.523 22.1982 20.8228 22.1982C16.1344 22.1982 12.3023 18.8439 12.2637 18.81C12.0744 18.6441 11.8139 18.6581 11.6387 18.8439C11.4646 19.0308 11.426 19.3393 11.5464 19.5776C11.6725 19.8288 14.7113 25.7031 20.8228 25.7031C26.9343 25.7031 29.9743 19.8288 30.0993 19.5776C30.2197 19.3381 30.1811 19.0308 30.007 18.8439Z" fill="#664500"/>
<path d="M15.4403 27.0512L13.6422 24.4587C13.6422 24.4587 13.0078 23.4457 11.9937 24.079C10.9808 24.711 11.6152 25.7251 11.6152 25.7251L13.6691 29.6741C13.6691 29.6741 13.8373 30.5713 12.5966 29.5677C12.0556 29.1308 12.3664 29.3773 12.3664 29.3773L11.8523 28.9555L5.4371 23.6887C5.4371 23.6887 4.60876 22.8148 3.84935 23.7378C3.09227 24.662 4.10988 25.3045 4.10988 25.3045L10.177 30.2886C10.0368 30.4288 9.61385 30.9125 9.47598 31.0632L2.98362 25.7356C2.98362 25.7356 2.15411 24.8606 1.39704 25.7835C0.63763 26.7077 1.65641 27.3503 1.65641 27.3503L8.14643 32.6801C8.0261 32.8437 7.72233 33.2363 7.61017 33.3975L2.01158 28.8013C2.01158 28.8013 1.18207 27.9274 0.424995 28.8504C-0.335582 29.7745 0.684363 30.4183 0.684363 30.4183L6.63579 35.3065C6.56102 35.5145 6.21169 36.0613 6.15678 36.2646L1.8667 32.7456C1.8667 32.7456 1.03836 31.867 0.281292 32.7935C-0.478117 33.7176 0.540659 34.3602 0.540659 34.3602L7.46881 40.0476L7.93029 40.4285C10.9913 42.9415 15.5115 42.4976 18.0246 39.4366C20.3274 36.6291 20.1474 32.5984 17.7442 30.0094C16.8925 29.0957 16.1553 28.0781 15.4403 27.0512ZM41.3653 32.7946C40.6083 31.8682 39.7799 32.7467 39.7799 32.7467L35.4898 36.2657C35.4349 36.0624 35.0856 35.5145 35.0108 35.3077L40.9623 30.4194C40.9623 30.4194 41.9822 29.7757 41.2228 28.8516C40.4657 27.9286 39.6362 28.8025 39.6362 28.8025L34.0376 33.3987C33.9255 33.2363 33.6205 32.8437 33.5014 32.6813L39.9914 27.3514C39.9914 27.3514 41.0113 26.7089 40.2519 25.7847C39.4948 24.8617 38.6665 25.7368 38.6665 25.7368L32.173 31.0644C32.0363 30.9136 31.6133 30.43 31.472 30.2898L37.5391 25.3057C37.5391 25.3057 38.5555 24.6631 37.7996 23.739C37.0402 22.816 36.2119 23.6899 36.2119 23.6899L29.7966 28.9567L29.2837 29.3785C29.2837 29.3785 30.4403 28.3959 29.0536 29.5689C27.6656 30.7419 27.981 29.6752 27.981 29.6752L30.0349 25.7263C30.0349 25.7263 30.6693 24.7122 29.6564 24.0801C28.6411 23.4469 28.0079 24.4598 28.0079 24.4598L26.211 27.0523C25.4948 28.0793 24.7576 29.0969 23.9048 30.0117C21.5004 32.6019 21.3204 36.6314 23.6255 39.4389C26.1374 42.4999 30.6588 42.9439 33.7198 40.4308L34.1825 40.0499L41.1106 34.3625C41.1048 34.3614 42.1236 33.7188 41.3653 32.7946Z" fill="#F4900C"/>
<path d="M32.1294 12.8318C32.0698 12.6892 30.6281 9.34668 27.6652 9.34668C24.7047 9.34668 23.263 12.6892 23.2034 12.8318C23.1099 13.0514 23.1707 13.3061 23.3471 13.458C23.5212 13.6075 23.7735 13.6122 23.9581 13.472C23.9698 13.4615 25.2211 12.5187 27.6652 12.5187C30.0942 12.5187 31.3443 13.4498 31.3735 13.472C31.4611 13.541 31.5662 13.576 31.6714 13.576C31.7824 13.576 31.8922 13.5363 31.9833 13.4603C32.1621 13.3096 32.2228 13.0514 32.1294 12.8318ZM19.2778 12.8318C19.2171 12.6892 17.7765 9.34668 14.8137 9.34668C11.8531 9.34668 10.4114 12.6892 10.3507 12.8318C10.2584 13.0514 10.318 13.3061 10.4956 13.458C10.6708 13.6075 10.9232 13.6122 11.1066 13.472C11.1194 13.4615 12.3695 12.5187 14.8137 12.5187C17.2438 12.5187 18.4927 13.4498 18.5208 13.472C18.6096 13.541 18.7135 13.576 18.8187 13.576C18.9297 13.576 19.0395 13.5363 19.1306 13.4603C19.3105 13.3096 19.3701 13.0514 19.2778 12.8318Z" fill="#664500"/>
<path d="M12.8571 29.7665C12.8571 29.7665 9.82767 33.6383 13.4226 38.4822C13.6703 38.8151 14.2988 38.6527 14.0313 38.2625C13.7392 37.8372 10.8184 33.7107 13.564 30.0177C13.564 30.0177 13.1188 29.9628 12.8571 29.7665ZM28.7264 29.881C28.7264 29.881 31.7571 33.7528 28.161 38.5967C27.9133 38.9296 27.2847 38.7672 27.5523 38.377C27.8444 37.9517 30.7652 33.8252 28.0196 30.1322C28.0184 30.1333 28.4647 30.0784 28.7264 29.881Z" fill="#B55005"/>
</svg>
