<svg width="64" height="64" viewBox="0 0 64 64" fill="none" xmlns="http://www.w3.org/2000/svg">
<rect width="64" height="64" rx="8" transform="matrix(-1 0 0 1 64 0)" fill="#CEE2BC"/>
<path fill-rule="evenodd" clip-rule="evenodd" d="M25.3365 21.5249H16.7251V17.4486C16.7238 16.3066 17.1762 15.211 17.9828 14.4026C18.7894 13.5942 19.8841 13.1394 21.0261 13.1381C22.168 13.1369 23.2637 13.5893 24.072 14.3959C24.8804 15.2025 25.3352 16.2972 25.3365 17.4391V21.5249ZM36.2862 25.2051C35.7891 24.1081 34.9864 23.1776 33.9742 22.5249C32.962 21.8722 31.7832 21.525 30.5788 21.5249H28.4793V14.3057C28.4793 13.1638 28.933 12.0686 29.7405 11.2611C30.5479 10.4536 31.6431 10 32.7851 10C33.927 10 35.0222 10.4536 35.8297 11.2611C36.6371 12.0686 37.0908 13.1638 37.0908 14.3057V22.7003C37.0908 23.6369 36.7922 24.5011 36.2862 25.2051ZM30.7831 25.4629C31.3237 25.5111 31.8308 25.7458 32.2173 26.127C32.6038 26.5081 32.8456 27.0119 32.9014 27.5518C32.9571 28.0917 32.8233 28.6343 32.5228 29.0863C32.2223 29.5384 31.7739 29.8718 31.2545 30.0294L24.6325 32.0409C24.1845 32.1796 23.801 32.4741 23.5512 32.871C23.3014 33.2679 23.2019 33.7411 23.2706 34.205C23.3393 34.6689 23.5717 35.0929 23.9259 35.4004C24.28 35.7078 24.7324 35.8785 25.2013 35.8814C26.3233 35.8814 27.7533 36.4409 28.9099 37.4969C30.0476 38.534 30.7233 39.8666 30.6951 41.2526C30.6895 41.5105 30.7348 41.767 30.8283 42.0075C30.9219 42.248 31.0619 42.4676 31.2404 42.654C31.4188 42.8403 31.6323 42.9897 31.8684 43.0935C32.1046 43.1974 32.359 43.2537 32.6169 43.2593C32.8749 43.2649 33.1314 43.2196 33.3718 43.126C33.6123 43.0324 33.832 42.8924 34.0183 42.714C34.2046 42.5355 34.354 42.3221 34.4579 42.0859C34.5617 41.8497 34.618 41.5954 34.6236 41.3374C34.6802 38.5623 33.3256 36.2051 31.5593 34.5929C31.4052 34.452 31.247 34.3157 31.0848 34.1843L32.3953 33.7883C33.4797 33.46 34.4549 32.8438 35.2169 32.0054C35.979 31.1669 36.4995 30.1376 36.7231 29.0269C37.4665 28.562 38.1228 27.9706 38.6622 27.2794C39.3883 28.215 40.3271 28.9637 41.4008 29.4635C42.4744 29.9632 43.6518 30.1996 44.8351 30.1528C46.0184 30.1061 47.1735 29.7777 48.2043 29.1949C49.2352 28.612 50.1121 27.7916 50.7622 26.8017C50.9068 27.5246 50.9822 28.2663 50.9822 29.0143V32.264C50.9822 41.0829 43.6311 44.0246 43.6311 44.0246V52.4286C43.6311 52.8453 43.4655 53.245 43.1708 53.5397C42.8761 53.8344 42.4764 54 42.0596 54H21.9265C21.5097 54 21.11 53.8344 20.8153 53.5397C20.5206 53.245 20.3551 52.8453 20.3551 52.4286V44.7914C15.9551 43.264 13.0008 37.1794 13.0039 33.0309C13.0039 29.4449 13.8116 25.6986 17.7905 25.6986L30.7831 25.4629ZM44.5393 13.3503C43.3974 13.3503 42.3022 13.8039 41.4947 14.6114C40.6873 15.4189 40.2336 16.5141 40.2336 17.656V22.7003C40.2336 23.8422 40.6873 24.9374 41.4947 25.7449C42.3022 26.5524 43.3974 27.006 44.5393 27.006C45.6813 27.006 46.7765 26.5524 47.5839 25.7449C48.3914 24.9374 48.8451 23.8422 48.8451 22.7003V17.656C48.8451 16.5141 48.3914 15.4189 47.5839 14.6114C46.7765 13.8039 45.6813 13.3503 44.5393 13.3503Z" fill="#294410"/>
</svg>
