<svg width="64" height="64" viewBox="0 0 64 64" fill="none" xmlns="http://www.w3.org/2000/svg">
<rect width="64" height="64" rx="8" transform="matrix(-1 0 0 1 64 0)" fill="#CEE2BC"/>
<path d="M22.834 18.8548C22.834 21.6909 25.9983 24.6811 28.609 26.6648C30.0738 27.7758 30.8053 28.3331 32.0007 28.3331C33.196 28.3331 33.9275 27.7758 35.3923 26.6648C38.003 24.6793 41.1673 21.6891 41.1673 18.8548C41.1673 13.7398 36.1257 11.8276 32.0007 15.7803C27.8757 11.8276 22.834 13.7398 22.834 18.8548ZM21.4773 49.2111H21.0007C19.2718 49.2111 18.4083 49.2111 17.8712 48.6739C17.334 48.1404 17.334 47.2751 17.334 45.5463V43.5076C17.334 42.5579 17.334 42.0831 17.5778 41.6578C17.8217 41.2343 18.1902 41.0198 18.9272 40.5908C23.7782 37.7693 30.666 36.1816 35.2622 38.9224C35.5702 39.1076 35.8488 39.3313 36.0872 39.5971C36.3334 39.8669 36.523 40.1834 36.645 40.5277C36.7669 40.8721 36.8186 41.2373 36.7971 41.602C36.7756 41.9667 36.6812 42.3233 36.5196 42.6509C36.358 42.9785 36.1324 43.2704 35.8561 43.5094C35.6358 43.7189 35.3668 43.8701 35.0733 43.9494C35.2933 43.9238 35.5042 43.8944 35.7058 43.8633C37.376 43.5974 38.7785 42.7028 40.0618 41.7329L43.3765 39.2304C43.9678 38.8003 44.6803 38.5686 45.4115 38.5686C46.1427 38.5686 46.8551 38.8003 47.4465 39.2304C48.497 40.0243 48.8197 41.3314 48.1542 42.3984C47.3787 43.6414 46.286 45.2309 45.2373 46.2026C44.1868 47.1743 42.623 48.0433 41.347 48.6593C39.9317 49.3431 38.3696 49.7354 36.7802 49.9939C33.5572 50.5146 30.1985 50.4339 27.0085 49.7776C25.1885 49.4034 23.3354 49.2124 21.4773 49.2111Z" fill="#294410"/>
</svg>
