<svg width="64" height="64" viewBox="0 0 64 64" fill="none" xmlns="http://www.w3.org/2000/svg">
<g opacity="0.4" filter="url(#filter0_f_1_538)">
<path d="M42.512 12.2938C34.4669 12.2938 31.5111 20.5152 31.5111 20.5152C31.5111 20.5152 28.5956 12.2938 20.4954 12.2938C14.4075 12.2938 7.46762 17.1187 10.0306 28.0866C12.5936 39.0544 31.5331 52.7175 31.5331 52.7175C31.5331 52.7175 50.4028 39.0544 52.9695 28.0866C55.5325 17.1187 49.092 12.2938 42.512 12.2938Z" fill="#F44336"/>
<path d="M19.2543 13.1127C25.5699 13.1127 28.7057 19.9019 29.7191 22.6522C29.8623 23.0451 30.4094 23.0561 30.5746 22.6742L31.5 20.5115C30.1964 16.3476 26.6127 12.2938 20.4953 12.2938C17.9618 12.2938 15.285 13.131 13.203 14.8972C15.0426 13.6891 17.198 13.1127 19.2543 13.1127ZM42.5119 12.2938C40.5695 12.2938 38.7996 12.7161 37.419 13.568C38.3884 13.1934 39.5891 13.1127 40.7788 13.1127C46.7309 13.1127 52.0588 17.6254 49.6537 28.0572C47.5901 37.0129 35.5317 47.878 31.8488 52.0235C31.6138 52.2879 31.533 52.7138 31.533 52.7138C31.533 52.7138 50.4028 39.0508 52.9694 28.0829C55.5324 17.1187 49.1029 12.2938 42.5119 12.2938Z" fill="#CC3333"/>
<path d="M14.2563 18.1136C15.6333 16.3952 18.0934 14.9742 20.179 16.6119C21.3063 17.4968 20.8143 19.3107 19.8045 20.0744C18.3358 21.1907 17.058 21.8626 16.162 23.6104C15.6259 24.6606 15.3028 25.8099 15.1376 26.9812C15.0715 27.4439 14.4656 27.5577 14.238 27.1501C12.6884 24.4036 12.2478 20.6215 14.2563 18.1136ZM36.3316 21.7268C35.6854 21.7268 35.2301 21.1026 35.4651 20.5004C35.902 19.3915 36.4675 18.3193 37.1468 17.3646C38.1529 15.9546 40.0659 15.1321 41.2776 15.9876C42.5187 16.8615 42.3572 18.6094 41.4869 19.4539C39.618 21.2641 37.2606 21.7268 36.3316 21.7268Z" fill="#FF8A80"/>
</g>
<path d="M42.512 12.2938C34.4669 12.2938 31.5111 20.5152 31.5111 20.5152C31.5111 20.5152 28.5956 12.2938 20.4954 12.2938C14.4075 12.2938 7.46762 17.1187 10.0306 28.0866C12.5936 39.0544 31.5331 52.7175 31.5331 52.7175C31.5331 52.7175 50.4028 39.0544 52.9695 28.0866C55.5325 17.1187 49.092 12.2938 42.512 12.2938Z" fill="#F44336"/>
<path d="M19.2543 13.1127C25.5699 13.1127 28.7057 19.9019 29.7191 22.6522C29.8623 23.0451 30.4094 23.0561 30.5746 22.6742L31.5 20.5115C30.1964 16.3476 26.6127 12.2938 20.4953 12.2938C17.9618 12.2938 15.285 13.131 13.203 14.8972C15.0426 13.6891 17.198 13.1127 19.2543 13.1127ZM42.5119 12.2938C40.5695 12.2938 38.7996 12.7161 37.419 13.568C38.3884 13.1934 39.5891 13.1127 40.7788 13.1127C46.7309 13.1127 52.0588 17.6254 49.6537 28.0572C47.5901 37.0129 35.5317 47.878 31.8488 52.0235C31.6138 52.2879 31.533 52.7138 31.533 52.7138C31.533 52.7138 50.4028 39.0508 52.9694 28.0829C55.5324 17.1187 49.1029 12.2938 42.5119 12.2938Z" fill="#CC3333"/>
<path d="M14.2563 18.1136C15.6333 16.3952 18.0934 14.9742 20.179 16.6119C21.3063 17.4968 20.8143 19.3107 19.8045 20.0744C18.3358 21.1907 17.058 21.8626 16.162 23.6104C15.6259 24.6606 15.3028 25.8099 15.1376 26.9812C15.0715 27.4439 14.4656 27.5577 14.238 27.1501C12.6884 24.4036 12.2478 20.6215 14.2563 18.1136ZM36.3316 21.7268C35.6854 21.7268 35.2301 21.1026 35.4651 20.5004C35.902 19.3915 36.4675 18.3193 37.1468 17.3646C38.1529 15.9546 40.0659 15.1321 41.2776 15.9876C42.5187 16.8615 42.3572 18.6094 41.4869 19.4539C39.618 21.2641 37.2606 21.7268 36.3316 21.7268Z" fill="#FF8A80"/>
<defs>
<filter id="filter0_f_1_538" x="-12" y="-11" width="87" height="87" filterUnits="userSpaceOnUse" color-interpolation-filters="sRGB">
<feFlood flood-opacity="0" result="BackgroundImageFix"/>
<feBlend mode="normal" in="SourceGraphic" in2="BackgroundImageFix" result="shape"/>
<feGaussianBlur stdDeviation="10" result="effect1_foregroundBlur_1_538"/>
</filter>
</defs>
</svg>
