<svg width="64" height="64" viewBox="0 0 64 64" fill="none" xmlns="http://www.w3.org/2000/svg">
<rect width="64" height="64" rx="8" transform="matrix(-1 0 0 1 64 0)" fill="#CEE2BC"/>
<path d="M43.9167 42.0837C46.7278 42.0837 49.1111 41.1059 51.0667 39.1503C53.0222 37.1948 54 34.8114 54 32.0003C54 29.1892 53.0222 26.8059 51.0667 24.8503C49.1111 22.8948 46.7278 21.917 43.9167 21.917C42.7861 21.917 41.7014 22.1156 40.6625 22.5128C39.6236 22.91 38.6917 23.4753 37.8667 24.2087L34.75 27.0503L37.5 29.5253L40.3417 26.9587C40.8306 26.5309 41.3806 26.1948 41.9917 25.9503C42.6028 25.7059 43.2444 25.5837 43.9167 25.5837C45.6889 25.5837 47.2014 26.21 48.4542 27.4628C49.7069 28.7156 50.3333 30.2281 50.3333 32.0003C50.3333 33.7725 49.7069 35.285 48.4542 36.5378C47.2014 37.7906 45.6889 38.417 43.9167 38.417C43.2444 38.417 42.6028 38.2948 41.9917 38.0503C41.3806 37.8059 40.8306 37.4698 40.3417 37.042L26.1333 24.2087C25.3083 23.4753 24.3764 22.91 23.3375 22.5128C22.2986 22.1156 21.2139 21.917 20.0833 21.917C17.2722 21.917 14.8889 22.8948 12.9333 24.8503C10.9778 26.8059 10 29.1892 10 32.0003C10 34.8114 10.9778 37.1948 12.9333 39.1503C14.8889 41.1059 17.2722 42.0837 20.0833 42.0837C21.2139 42.0837 22.2986 41.885 23.3375 41.4878C24.3764 41.0906 25.3083 40.5253 26.1333 39.792L29.25 36.9503L26.5 34.4753L23.6583 37.042C23.1694 37.4698 22.6194 37.8059 22.0083 38.0503C21.3972 38.2948 20.7556 38.417 20.0833 38.417C18.3111 38.417 16.7986 37.7906 15.5458 36.5378C14.2931 35.285 13.6667 33.7725 13.6667 32.0003C13.6667 30.2281 14.2931 28.7156 15.5458 27.4628C16.7986 26.21 18.3111 25.5837 20.0833 25.5837C20.7556 25.5837 21.3972 25.7059 22.0083 25.9503C22.6194 26.1948 23.1694 26.5309 23.6583 26.9587L37.8667 39.792C38.6917 40.5253 39.6236 41.0906 40.6625 41.4878C41.7014 41.885 42.7861 42.0837 43.9167 42.0837Z" fill="#294410"/>
</svg>
