<svg width="64" height="64" viewBox="0 0 64 64" fill="none" xmlns="http://www.w3.org/2000/svg">
<rect width="64" height="64" rx="8" transform="matrix(-1 0 0 1 64 0)" fill="#CEE2BC"/>
<g clip-path="url(#clip0_3_1388)">
<path d="M27.4128 20.6205C30.0161 17.1299 33.9303 16.1105 37.531 17.0914C41.4176 18.1492 44.835 21.4877 45.9698 26.137C46.0285 26.3754 46.0798 26.6137 46.122 26.852C44.4837 26.2687 42.7019 26.2237 41.0363 26.7237C38.6768 24.9784 35.7545 24.685 33.1566 25.642C29.9025 26.8429 27.3615 29.888 26.773 33.7197C26.0213 38.6257 29.0096 43.033 33.2355 46.7804L33.9468 47.3964C33.373 47.4367 32.79 47.3469 32.2326 47.2277C31.9462 47.1665 31.6613 47.098 31.3783 47.0224L30.3938 46.7474C21.6415 44.2852 15.7821 40.4334 14.101 34.6767C12.759 30.0824 14.0496 25.4825 16.8876 22.6225C19.5166 19.9734 23.4143 18.899 27.4128 20.6205ZM30.3975 34.2752C31.1821 29.1565 37.102 26.6339 40.1416 31.0265C40.1708 31.0674 40.2148 31.0951 40.2642 31.1037C40.3137 31.1122 40.3645 31.101 40.4056 31.0724C44.7635 27.985 49.4623 32.3795 48.4485 37.4579C47.8618 40.4022 45.1301 42.8479 40.2535 44.7912L39.456 45.1029L38.9738 45.3009C38.5576 45.464 38.1176 45.5942 37.7198 45.5245C37.3238 45.4549 36.9553 45.1799 36.6198 44.8865L36.0515 44.3732C31.811 40.723 29.9263 37.357 30.3975 34.2752Z" fill="#294410"/>
</g>
<defs>
<clipPath id="clip0_3_1388">
<rect width="44" height="44" fill="white" transform="translate(10 10)"/>
</clipPath>
</defs>
</svg>
