<svg width="64" height="64" viewBox="0 0 64 64" fill="none" xmlns="http://www.w3.org/2000/svg">
<g opacity="0.4" filter="url(#filter0_f_1_504)">
<path d="M37.6143 13.9131L37.6396 13.9312L37.6143 13.9131Z" fill="url(#paint0_linear_1_504)"/>
<path d="M39.631 34.9011C36.0978 40.1957 33.1271 46.0281 26.3701 47.814C26.2997 47.8316 26.2259 47.8105 26.1767 47.7578L15.1376 35.5761C14.8107 35.214 14.9724 34.641 15.4365 34.4898C19.9751 32.9992 22.8087 29.4484 25.3329 25.6621C28.8134 20.4484 31.7947 14.7109 38.3372 12.83C38.5868 12.7351 38.8786 12.7949 39.0685 13.0023C40.5345 14.6195 51.5911 25.1453 51.6087 25.1664C51.6158 25.1699 42.3415 30.8371 39.631 34.9011Z" fill="#66BB6A"/>
<path d="M29.4296 37.3198C29.1905 37.0808 28.9057 36.9612 28.5753 36.9647C28.2448 36.9683 27.8159 37.1019 27.285 37.3655C26.5643 37.7487 25.9385 37.928 25.4147 37.9104C24.8909 37.8894 24.4198 37.6714 24.005 37.253C23.5796 36.8276 23.3546 36.353 23.3335 35.8327C23.3089 35.3124 23.4882 34.8097 23.8714 34.3245L23.1999 33.6495C23.1525 33.6011 23.126 33.5361 23.126 33.4685C23.126 33.4008 23.1525 33.3358 23.1999 33.2874L23.4178 33.0694C23.5163 32.971 23.678 32.971 23.78 33.0694L24.455 33.7479C24.9507 33.3718 25.4745 33.2171 26.0229 33.2804C26.5151 33.3401 27.0003 33.5827 27.4749 34.0187C27.5663 34.103 27.5663 34.2507 27.4784 34.3386L27.0776 34.7394C26.9932 34.8237 26.8561 34.8237 26.7682 34.7429C26.4518 34.4687 26.1249 34.3104 25.7909 34.2753C25.4007 34.2331 25.0561 34.3597 24.7608 34.655C24.4514 34.9644 24.2932 35.2808 24.2897 35.6007C24.2862 35.9241 24.4268 36.23 24.7116 36.5147C24.9753 36.7819 25.2741 36.905 25.6046 36.8909C25.935 36.8769 26.3604 36.7362 26.8878 36.469C27.4151 36.2019 27.8616 36.0366 28.2413 35.9698C28.6175 35.903 28.962 35.9206 29.2714 36.019C29.5807 36.121 29.8725 36.3073 30.1467 36.5815C30.5827 37.021 30.8042 37.5062 30.8077 38.037C30.8112 38.5679 30.6003 39.0952 30.1714 39.619L30.7339 40.1815C30.8323 40.28 30.8323 40.4417 30.7339 40.5437L30.5194 40.7581C30.421 40.8565 30.2592 40.8565 30.1573 40.7581L29.5948 40.1956C29.0675 40.6315 28.5155 40.839 27.9425 40.8108C27.4327 40.7862 26.944 40.5683 26.48 40.1569C26.4577 40.1368 26.4398 40.1122 26.4275 40.0848C26.4151 40.0574 26.4086 40.0278 26.4083 39.9977C26.408 39.9677 26.4138 39.9379 26.4256 39.9103C26.4373 39.8826 26.4546 39.8577 26.4764 39.837L26.8842 39.4327C26.9651 39.3519 27.0952 39.3448 27.1831 39.4187C27.496 39.6894 27.8194 39.8265 28.1534 39.8335C28.5366 39.8405 28.9022 39.6683 29.2503 39.3202C29.5913 38.9827 29.7776 38.6312 29.8092 38.2761C29.8339 37.921 29.7108 37.6011 29.4296 37.3198Z" fill="white"/>
<path d="M30.3289 39.7918L29.5906 40.2031L23.8848 34.3461L23.6914 34.1492L24.4543 33.752L30.1602 39.623L30.3289 39.7918Z" fill="white"/>
<path opacity="0.5" d="M35.677 31.0834C38.4768 31.0834 40.7465 28.8137 40.7465 26.0139C40.7465 23.214 38.4768 20.9443 35.677 20.9443C32.8771 20.9443 30.6074 23.214 30.6074 26.0139C30.6074 28.8137 32.8771 31.0834 35.677 31.0834Z" fill="#2E7D32"/>
<path d="M41.3994 37.5694C39.5889 40.2835 36.9803 45.462 33.3873 48.3097C30.0896 50.9253 25.9307 52.2155 25.9307 52.2155L14.4873 38.814L14.9619 35.1366L26.1838 47.7612C26.2295 47.8104 26.2998 47.8351 26.3666 47.8175C33.1271 46.0315 36.0979 40.1991 39.6311 34.9046C42.3416 30.8405 46.3951 26.5093 51.6123 25.1733C52.0271 25.6304 51.8443 29.4624 51.3908 29.6136C46.7678 31.1464 43.9307 33.769 41.3994 37.5694Z" fill="#2E7D32"/>
<path d="M36.7207 39.363L37.7824 43.2829C37.7824 43.2829 41.0168 38.5509 41.5406 37.4048L40.3664 33.8716C38.7984 35.8228 36.7207 39.363 36.7207 39.363Z" fill="#FFC06C"/>
<path d="M36.4455 15.9799C36.7162 16.3701 37.1908 16.7744 37.9537 17.01C38.2244 17.0943 38.5092 17.1365 38.7939 17.1365C39.3986 17.1365 39.9049 16.9502 40.2459 16.7779C41.1002 17.6357 42.1689 18.6799 43.2025 19.6924C44.215 20.6838 45.2557 21.7033 46.1029 22.5506C45.8287 22.9689 45.6107 23.6018 45.7021 24.4561C45.7443 24.8498 46.0221 25.2506 46.3174 25.5775C44.4471 26.7799 40.8576 29.4518 37.1768 34.1627C36.3998 35.1576 35.6404 36.2615 34.9092 37.3268C33.0881 39.9775 31.2072 42.7127 28.7041 44.3861C28.4088 43.9045 27.8639 43.3209 26.89 43.0783C26.6545 43.0186 26.4225 42.9904 26.201 42.9904C25.5752 42.9904 25.083 43.2225 24.7314 43.4967L19.4229 37.3936C19.8693 37.0455 20.2877 36.4514 20.3299 35.5338C20.351 35.1049 20.1225 34.7146 19.8623 34.4193C22.4498 32.5033 25.1814 29.4482 26.651 27.2545C26.8654 26.9346 27.0869 26.6006 27.3154 26.2561C29.6146 22.7861 32.7295 18.1033 36.4455 15.9799ZM36.7232 15.1572C32.2514 17.3721 28.69 23.1412 26.1553 26.917C24.4959 29.3885 21.4971 32.6123 18.9131 34.3525C18.9131 34.3525 19.7604 34.9537 19.7322 35.4986C19.6619 36.9611 18.4736 37.2072 18.4736 37.2072L24.7139 44.3791C24.7139 44.3791 25.1709 43.5775 26.1975 43.5775C26.3627 43.5775 26.5455 43.5986 26.7424 43.6479C28.1557 43.9994 28.4404 45.2439 28.4404 45.2439C32.4271 42.9236 34.8354 38.1178 37.6408 34.5213C41.4482 29.6451 45.2346 26.8818 47.2842 25.6689C47.2842 25.6689 46.342 24.9061 46.2893 24.3857C46.1451 23.0182 46.9186 22.526 46.9186 22.526C45.108 20.6943 42.1338 17.8432 40.3338 16.0186C40.3338 16.0186 39.6799 16.5318 38.7904 16.5318C38.5795 16.5318 38.3545 16.5037 38.126 16.4334C36.8322 16.0432 36.7232 15.1572 36.7232 15.1572Z" fill="#2E7D32"/>
<path d="M27.9207 21.7134L24.5 26.8849L36.7203 39.3618C36.7203 39.3618 38.7172 36.2048 40.3625 33.8704L27.9207 21.7134Z" fill="#FFECB3"/>
<path opacity="0.68" d="M40.8587 35.3545C40.8587 35.3545 38.447 36.5814 37.7896 40.3221C37.54 41.7354 37.7861 43.2822 37.7861 43.2822L39.7759 40.2201L41.1997 35.9627L40.8587 35.3545Z" fill="#D69136"/>
<path d="M14.4873 38.8102L25.8885 52.166C25.8885 52.166 26.3982 51.4102 26.5143 50.2324C26.6162 49.2059 26.2576 47.8418 26.2576 47.8418L14.9619 35.1328L14.4873 38.8102Z" fill="#206022"/>
</g>
<path d="M37.6143 13.9131L37.6396 13.9312L37.6143 13.9131Z" fill="url(#paint1_linear_1_504)"/>
<path d="M39.631 34.9011C36.0978 40.1957 33.1271 46.0281 26.3701 47.814C26.2997 47.8316 26.2259 47.8105 26.1767 47.7578L15.1376 35.5761C14.8107 35.214 14.9724 34.641 15.4365 34.4898C19.9751 32.9992 22.8087 29.4484 25.3329 25.6621C28.8134 20.4484 31.7947 14.7109 38.3372 12.83C38.5868 12.7351 38.8786 12.7949 39.0685 13.0023C40.5345 14.6195 51.5911 25.1453 51.6087 25.1664C51.6158 25.1699 42.3415 30.8371 39.631 34.9011Z" fill="#66BB6A"/>
<path d="M29.4296 37.3198C29.1905 37.0808 28.9057 36.9612 28.5753 36.9647C28.2448 36.9683 27.8159 37.1019 27.285 37.3655C26.5643 37.7487 25.9385 37.928 25.4147 37.9104C24.8909 37.8894 24.4198 37.6714 24.005 37.253C23.5796 36.8276 23.3546 36.353 23.3335 35.8327C23.3089 35.3124 23.4882 34.8097 23.8714 34.3245L23.1999 33.6495C23.1525 33.6011 23.126 33.5361 23.126 33.4685C23.126 33.4008 23.1525 33.3358 23.1999 33.2874L23.4178 33.0694C23.5163 32.971 23.678 32.971 23.78 33.0694L24.455 33.7479C24.9507 33.3718 25.4745 33.2171 26.0229 33.2804C26.5151 33.3401 27.0003 33.5827 27.4749 34.0187C27.5663 34.103 27.5663 34.2507 27.4784 34.3386L27.0776 34.7394C26.9932 34.8237 26.8561 34.8237 26.7682 34.7429C26.4518 34.4687 26.1249 34.3104 25.7909 34.2753C25.4007 34.2331 25.0561 34.3597 24.7608 34.655C24.4514 34.9644 24.2932 35.2808 24.2897 35.6007C24.2862 35.9241 24.4268 36.23 24.7116 36.5147C24.9753 36.7819 25.2741 36.905 25.6046 36.8909C25.935 36.8769 26.3604 36.7362 26.8878 36.469C27.4151 36.2019 27.8616 36.0366 28.2413 35.9698C28.6175 35.903 28.962 35.9206 29.2714 36.019C29.5807 36.121 29.8725 36.3073 30.1467 36.5815C30.5827 37.021 30.8042 37.5062 30.8077 38.037C30.8112 38.5679 30.6003 39.0952 30.1714 39.619L30.7339 40.1815C30.8323 40.28 30.8323 40.4417 30.7339 40.5437L30.5194 40.7581C30.421 40.8565 30.2592 40.8565 30.1573 40.7581L29.5948 40.1956C29.0675 40.6315 28.5155 40.839 27.9425 40.8108C27.4327 40.7862 26.944 40.5683 26.48 40.1569C26.4577 40.1368 26.4398 40.1122 26.4275 40.0848C26.4151 40.0574 26.4086 40.0278 26.4083 39.9977C26.408 39.9677 26.4138 39.9379 26.4256 39.9103C26.4373 39.8826 26.4546 39.8577 26.4764 39.837L26.8842 39.4327C26.9651 39.3519 27.0952 39.3448 27.1831 39.4187C27.496 39.6894 27.8194 39.8265 28.1534 39.8335C28.5366 39.8405 28.9022 39.6683 29.2503 39.3202C29.5913 38.9827 29.7776 38.6312 29.8092 38.2761C29.8339 37.921 29.7108 37.6011 29.4296 37.3198Z" fill="white"/>
<path d="M30.3289 39.7918L29.5906 40.2031L23.8848 34.3461L23.6914 34.1492L24.4543 33.752L30.1602 39.623L30.3289 39.7918Z" fill="white"/>
<path opacity="0.5" d="M35.677 31.0834C38.4768 31.0834 40.7465 28.8137 40.7465 26.0139C40.7465 23.214 38.4768 20.9443 35.677 20.9443C32.8771 20.9443 30.6074 23.214 30.6074 26.0139C30.6074 28.8137 32.8771 31.0834 35.677 31.0834Z" fill="#2E7D32"/>
<path d="M41.3994 37.5694C39.5889 40.2835 36.9803 45.462 33.3873 48.3097C30.0896 50.9253 25.9307 52.2155 25.9307 52.2155L14.4873 38.814L14.9619 35.1366L26.1838 47.7612C26.2295 47.8104 26.2998 47.8351 26.3666 47.8175C33.1271 46.0315 36.0979 40.1991 39.6311 34.9046C42.3416 30.8405 46.3951 26.5093 51.6123 25.1733C52.0271 25.6304 51.8443 29.4624 51.3908 29.6136C46.7678 31.1464 43.9307 33.769 41.3994 37.5694Z" fill="#2E7D32"/>
<path d="M36.7207 39.363L37.7824 43.2829C37.7824 43.2829 41.0168 38.5509 41.5406 37.4048L40.3664 33.8716C38.7984 35.8228 36.7207 39.363 36.7207 39.363Z" fill="#FFC06C"/>
<path d="M36.4455 15.9799C36.7162 16.3701 37.1908 16.7744 37.9537 17.01C38.2244 17.0943 38.5092 17.1365 38.7939 17.1365C39.3986 17.1365 39.9049 16.9502 40.2459 16.7779C41.1002 17.6357 42.1689 18.6799 43.2025 19.6924C44.215 20.6838 45.2557 21.7033 46.1029 22.5506C45.8287 22.9689 45.6107 23.6018 45.7021 24.4561C45.7443 24.8498 46.0221 25.2506 46.3174 25.5775C44.4471 26.7799 40.8576 29.4518 37.1768 34.1627C36.3998 35.1576 35.6404 36.2615 34.9092 37.3268C33.0881 39.9775 31.2072 42.7127 28.7041 44.3861C28.4088 43.9045 27.8639 43.3209 26.89 43.0783C26.6545 43.0186 26.4225 42.9904 26.201 42.9904C25.5752 42.9904 25.083 43.2225 24.7314 43.4967L19.4229 37.3936C19.8693 37.0455 20.2877 36.4514 20.3299 35.5338C20.351 35.1049 20.1225 34.7146 19.8623 34.4193C22.4498 32.5033 25.1814 29.4482 26.651 27.2545C26.8654 26.9346 27.0869 26.6006 27.3154 26.2561C29.6146 22.7861 32.7295 18.1033 36.4455 15.9799ZM36.7232 15.1572C32.2514 17.3721 28.69 23.1412 26.1553 26.917C24.4959 29.3885 21.4971 32.6123 18.9131 34.3525C18.9131 34.3525 19.7604 34.9537 19.7322 35.4986C19.6619 36.9611 18.4736 37.2072 18.4736 37.2072L24.7139 44.3791C24.7139 44.3791 25.1709 43.5775 26.1975 43.5775C26.3627 43.5775 26.5455 43.5986 26.7424 43.6479C28.1557 43.9994 28.4404 45.2439 28.4404 45.2439C32.4271 42.9236 34.8354 38.1178 37.6408 34.5213C41.4482 29.6451 45.2346 26.8818 47.2842 25.6689C47.2842 25.6689 46.342 24.9061 46.2893 24.3857C46.1451 23.0182 46.9186 22.526 46.9186 22.526C45.108 20.6943 42.1338 17.8432 40.3338 16.0186C40.3338 16.0186 39.6799 16.5318 38.7904 16.5318C38.5795 16.5318 38.3545 16.5037 38.126 16.4334C36.8322 16.0432 36.7232 15.1572 36.7232 15.1572Z" fill="#2E7D32"/>
<path d="M27.9207 21.7134L24.5 26.8849L36.7203 39.3618C36.7203 39.3618 38.7172 36.2048 40.3625 33.8704L27.9207 21.7134Z" fill="#FFECB3"/>
<path opacity="0.68" d="M40.8587 35.3545C40.8587 35.3545 38.447 36.5814 37.7896 40.3221C37.54 41.7354 37.7861 43.2822 37.7861 43.2822L39.7759 40.2201L41.1997 35.9627L40.8587 35.3545Z" fill="#D69136"/>
<path d="M14.4873 38.8102L25.8885 52.166C25.8885 52.166 26.3982 51.4102 26.5143 50.2324C26.6162 49.2059 26.2576 47.8418 26.2576 47.8418L14.9619 35.1328L14.4873 38.8102Z" fill="#206022"/>
<defs>
<filter id="filter0_f_1_504" x="-11" y="-10" width="85" height="85" filterUnits="userSpaceOnUse" color-interpolation-filters="sRGB">
<feFlood flood-opacity="0" result="BackgroundImageFix"/>
<feBlend mode="normal" in="SourceGraphic" in2="BackgroundImageFix" result="shape"/>
<feGaussianBlur stdDeviation="10" result="effect1_foregroundBlur_1_504"/>
</filter>
<linearGradient id="paint0_linear_1_504" x1="37.6274" y1="13.9227" x2="37.6274" y2="13.9227" gradientUnits="userSpaceOnUse">
<stop stop-color="#43A047"/>
<stop offset="0.999" stop-color="#66BB6A"/>
</linearGradient>
<linearGradient id="paint1_linear_1_504" x1="37.6274" y1="13.9227" x2="37.6274" y2="13.9227" gradientUnits="userSpaceOnUse">
<stop stop-color="#43A047"/>
<stop offset="0.999" stop-color="#66BB6A"/>
</linearGradient>
</defs>
</svg>
