<svg width="64" height="64" viewBox="0 0 64 64" fill="none" xmlns="http://www.w3.org/2000/svg">
<rect width="64" height="64" rx="8" transform="matrix(-1 0 0 1 64 0)" fill="#CEE2BC"/>
<path fill-rule="evenodd" clip-rule="evenodd" d="M32.916 15.5H31.0827V19.3225C30.6088 19.4906 30.1899 19.7853 29.8716 20.1746C29.5532 20.5638 29.3476 21.0329 29.2769 21.5308L22.5944 23.3228C22.3876 23.3787 22.207 23.5052 22.0838 23.6803L16.7167 31.2832H15.6094C15.6088 32.021 15.7128 32.7552 15.9183 33.4639C16.7891 36.4486 19.3989 38.6156 22.4844 38.6156C25.6881 38.6156 28.3795 36.2781 29.143 33.1156C29.2871 32.5164 29.3597 31.9022 29.3594 31.2859V31.2832H28.5023L24.2856 24.7675L29.6408 23.3311C29.9703 23.8793 30.48 24.296 31.0827 24.5099V44.8333H28.3327V46.6667H22.8327V48.5H41.166V46.6667H35.666V44.8333H32.916V24.5108C33.4454 24.3235 33.9048 23.9786 34.2325 23.5226C34.5602 23.0666 34.7406 22.5212 34.7494 21.9598L39.461 20.6966L36.0996 25.5833H34.7494C34.7494 26.2158 34.8245 26.83 34.9657 27.4167C35.7293 30.5792 38.4215 32.9167 41.6244 32.9167C44.709 32.9167 47.3196 30.7497 48.1905 27.7641C48.3959 27.0563 48.4999 26.323 48.4994 25.5861V25.5833H46.7155L42.4127 18.6992C42.3107 18.527 42.1551 18.3929 41.9697 18.3174C41.7843 18.2419 41.5793 18.2292 41.386 18.2812L34.1627 20.219C33.8404 19.8084 33.408 19.4978 32.916 19.3234V15.5ZM38.3253 25.5833H44.554L41.5877 20.8377L38.3253 25.5833ZM26.3188 31.2832L22.7997 25.8446L18.9607 31.2832H26.3188Z" fill="#294410"/>
</svg>
