<svg width="1440" height="28" viewBox="0 0 1440 28" fill="none" xmlns="http://www.w3.org/2000/svg">
<g clip-path="url(#clip0_3_1580)">
<rect width="1440" height="28" fill="#F8FFFF"/>
<line x1="-57.3658" y1="87.6582" x2="24.6342" y2="-0.341839" stroke="black" stroke-opacity="0.4"/>
<line x1="-18.3658" y1="87.6582" x2="63.6342" y2="-0.341839" stroke="black" stroke-opacity="0.4"/>
<line x1="20.6342" y1="87.6582" x2="102.634" y2="-0.341839" stroke="black" stroke-opacity="0.4"/>
<line x1="59.6342" y1="87.6582" x2="141.634" y2="-0.341839" stroke="black" stroke-opacity="0.4"/>
<line x1="98.6342" y1="87.6582" x2="180.634" y2="-0.341839" stroke="black" stroke-opacity="0.4"/>
<line x1="137.634" y1="87.6582" x2="219.634" y2="-0.341839" stroke="black" stroke-opacity="0.4"/>
<line x1="176.634" y1="87.6582" x2="258.634" y2="-0.341839" stroke="black" stroke-opacity="0.4"/>
<line x1="215.634" y1="87.6582" x2="297.634" y2="-0.341839" stroke="black" stroke-opacity="0.4"/>
<line x1="254.634" y1="87.6582" x2="336.634" y2="-0.341839" stroke="black" stroke-opacity="0.4"/>
<line x1="293.634" y1="87.6582" x2="375.634" y2="-0.341839" stroke="black" stroke-opacity="0.4"/>
<line x1="332.634" y1="87.6582" x2="414.634" y2="-0.341839" stroke="black" stroke-opacity="0.4"/>
<line x1="371.634" y1="87.6582" x2="453.634" y2="-0.341839" stroke="black" stroke-opacity="0.4"/>
<line x1="410.634" y1="87.6582" x2="492.634" y2="-0.341839" stroke="black" stroke-opacity="0.4"/>
<line x1="449.634" y1="87.6582" x2="531.634" y2="-0.341839" stroke="black" stroke-opacity="0.4"/>
<line x1="488.634" y1="87.6582" x2="570.634" y2="-0.341839" stroke="black" stroke-opacity="0.4"/>
<line x1="527.634" y1="87.6582" x2="609.634" y2="-0.341839" stroke="black" stroke-opacity="0.4"/>
<line x1="566.634" y1="87.6582" x2="648.634" y2="-0.341839" stroke="black" stroke-opacity="0.4"/>
<line x1="605.634" y1="87.6582" x2="687.634" y2="-0.341839" stroke="black" stroke-opacity="0.4"/>
<line x1="644.634" y1="87.6582" x2="726.634" y2="-0.341839" stroke="black" stroke-opacity="0.4"/>
<line x1="683.634" y1="87.6582" x2="765.634" y2="-0.341839" stroke="black" stroke-opacity="0.4"/>
<line x1="722.634" y1="87.6582" x2="804.634" y2="-0.341839" stroke="black" stroke-opacity="0.4"/>
<line x1="761.634" y1="87.6582" x2="843.634" y2="-0.341839" stroke="black" stroke-opacity="0.4"/>
<line x1="800.634" y1="87.6582" x2="882.634" y2="-0.341839" stroke="black" stroke-opacity="0.4"/>
<line x1="839.634" y1="87.6582" x2="921.634" y2="-0.341839" stroke="black" stroke-opacity="0.4"/>
<line x1="878.634" y1="87.6582" x2="960.634" y2="-0.341839" stroke="black" stroke-opacity="0.4"/>
<line x1="917.634" y1="87.6582" x2="999.634" y2="-0.341839" stroke="black" stroke-opacity="0.4"/>
<line x1="956.634" y1="87.6582" x2="1038.63" y2="-0.341839" stroke="black" stroke-opacity="0.4"/>
<line x1="995.634" y1="87.6582" x2="1077.63" y2="-0.341839" stroke="black" stroke-opacity="0.4"/>
<line x1="1034.63" y1="87.6582" x2="1116.63" y2="-0.341839" stroke="black" stroke-opacity="0.4"/>
<line x1="1073.63" y1="87.6582" x2="1155.63" y2="-0.341839" stroke="black" stroke-opacity="0.4"/>
<line x1="1112.63" y1="87.6582" x2="1194.63" y2="-0.341839" stroke="black" stroke-opacity="0.4"/>
<line x1="1151.63" y1="87.6582" x2="1233.63" y2="-0.341839" stroke="black" stroke-opacity="0.4"/>
<line x1="1190.63" y1="87.6582" x2="1272.63" y2="-0.341839" stroke="black" stroke-opacity="0.4"/>
<line x1="1229.63" y1="87.6582" x2="1311.63" y2="-0.341839" stroke="black" stroke-opacity="0.4"/>
<line x1="1268.63" y1="87.6582" x2="1350.63" y2="-0.341839" stroke="black" stroke-opacity="0.4"/>
<line x1="1307.63" y1="87.6582" x2="1389.63" y2="-0.341839" stroke="black" stroke-opacity="0.4"/>
<line x1="1346.63" y1="87.6582" x2="1428.63" y2="-0.341839" stroke="black" stroke-opacity="0.4"/>
<line x1="1385.63" y1="87.6582" x2="1467.63" y2="-0.341839" stroke="black" stroke-opacity="0.4"/>
<line y1="-0.5" x2="120.283" y2="-0.5" transform="matrix(-0.681726 -0.731608 -0.731608 0.681726 1468 87.999)" stroke="black" stroke-opacity="0.4"/>
<line y1="-0.5" x2="120.283" y2="-0.5" transform="matrix(-0.681726 -0.731608 -0.731608 0.681726 1429 87.999)" stroke="black" stroke-opacity="0.4"/>
<line y1="-0.5" x2="120.283" y2="-0.5" transform="matrix(-0.681726 -0.731608 -0.731608 0.681726 1390 87.999)" stroke="black" stroke-opacity="0.4"/>
<line y1="-0.5" x2="120.283" y2="-0.5" transform="matrix(-0.681726 -0.731608 -0.731608 0.681726 1351 87.999)" stroke="black" stroke-opacity="0.4"/>
<line y1="-0.5" x2="120.283" y2="-0.5" transform="matrix(-0.681726 -0.731608 -0.731608 0.681726 1312 87.999)" stroke="black" stroke-opacity="0.4"/>
<line y1="-0.5" x2="120.283" y2="-0.5" transform="matrix(-0.681726 -0.731608 -0.731608 0.681726 1273 87.999)" stroke="black" stroke-opacity="0.4"/>
<line y1="-0.5" x2="120.283" y2="-0.5" transform="matrix(-0.681726 -0.731608 -0.731608 0.681726 1234 87.999)" stroke="black" stroke-opacity="0.4"/>
<line y1="-0.5" x2="120.283" y2="-0.5" transform="matrix(-0.681726 -0.731608 -0.731608 0.681726 1195 87.999)" stroke="black" stroke-opacity="0.4"/>
<line y1="-0.5" x2="120.283" y2="-0.5" transform="matrix(-0.681726 -0.731608 -0.731608 0.681726 1156 87.999)" stroke="black" stroke-opacity="0.4"/>
<line y1="-0.5" x2="120.283" y2="-0.5" transform="matrix(-0.681726 -0.731608 -0.731608 0.681726 1117 87.999)" stroke="black" stroke-opacity="0.4"/>
<line y1="-0.5" x2="120.283" y2="-0.5" transform="matrix(-0.681726 -0.731608 -0.731608 0.681726 1078 87.999)" stroke="black" stroke-opacity="0.4"/>
<line y1="-0.5" x2="120.283" y2="-0.5" transform="matrix(-0.681726 -0.731608 -0.731608 0.681726 1039 87.999)" stroke="black" stroke-opacity="0.4"/>
<line y1="-0.5" x2="120.283" y2="-0.5" transform="matrix(-0.681726 -0.731608 -0.731608 0.681726 1000 87.999)" stroke="black" stroke-opacity="0.4"/>
<line y1="-0.5" x2="120.283" y2="-0.5" transform="matrix(-0.681726 -0.731608 -0.731608 0.681726 961 87.999)" stroke="black" stroke-opacity="0.4"/>
<line y1="-0.5" x2="120.283" y2="-0.5" transform="matrix(-0.681726 -0.731608 -0.731608 0.681726 922 87.999)" stroke="black" stroke-opacity="0.4"/>
<line y1="-0.5" x2="120.283" y2="-0.5" transform="matrix(-0.681726 -0.731608 -0.731608 0.681726 883 87.999)" stroke="black" stroke-opacity="0.4"/>
<line y1="-0.5" x2="120.283" y2="-0.5" transform="matrix(-0.681726 -0.731608 -0.731608 0.681726 844 87.999)" stroke="black" stroke-opacity="0.4"/>
<line y1="-0.5" x2="120.283" y2="-0.5" transform="matrix(-0.681726 -0.731608 -0.731608 0.681726 805 87.999)" stroke="black" stroke-opacity="0.4"/>
<line y1="-0.5" x2="120.283" y2="-0.5" transform="matrix(-0.681726 -0.731608 -0.731608 0.681726 766 87.999)" stroke="black" stroke-opacity="0.4"/>
<line y1="-0.5" x2="120.283" y2="-0.5" transform="matrix(-0.681726 -0.731608 -0.731608 0.681726 727 87.999)" stroke="black" stroke-opacity="0.4"/>
<line y1="-0.5" x2="120.283" y2="-0.5" transform="matrix(-0.681726 -0.731608 -0.731608 0.681726 688 87.999)" stroke="black" stroke-opacity="0.4"/>
<line y1="-0.5" x2="120.283" y2="-0.5" transform="matrix(-0.681726 -0.731608 -0.731608 0.681726 649 87.999)" stroke="black" stroke-opacity="0.4"/>
<line y1="-0.5" x2="120.283" y2="-0.5" transform="matrix(-0.681726 -0.731608 -0.731608 0.681726 610 87.999)" stroke="black" stroke-opacity="0.4"/>
<line y1="-0.5" x2="120.283" y2="-0.5" transform="matrix(-0.681726 -0.731608 -0.731608 0.681726 571 87.999)" stroke="black" stroke-opacity="0.4"/>
<line y1="-0.5" x2="120.283" y2="-0.5" transform="matrix(-0.681726 -0.731608 -0.731608 0.681726 532 87.999)" stroke="black" stroke-opacity="0.4"/>
<line y1="-0.5" x2="120.283" y2="-0.5" transform="matrix(-0.681726 -0.731608 -0.731608 0.681726 493 87.999)" stroke="black" stroke-opacity="0.4"/>
<line y1="-0.5" x2="120.283" y2="-0.5" transform="matrix(-0.681726 -0.731608 -0.731608 0.681726 454 87.999)" stroke="black" stroke-opacity="0.4"/>
<line y1="-0.5" x2="120.283" y2="-0.5" transform="matrix(-0.681726 -0.731608 -0.731608 0.681726 415 87.999)" stroke="black" stroke-opacity="0.4"/>
<line y1="-0.5" x2="120.283" y2="-0.5" transform="matrix(-0.681726 -0.731608 -0.731608 0.681726 376 87.999)" stroke="black" stroke-opacity="0.4"/>
<line y1="-0.5" x2="120.283" y2="-0.5" transform="matrix(-0.681726 -0.731608 -0.731608 0.681726 337 87.999)" stroke="black" stroke-opacity="0.4"/>
<line y1="-0.5" x2="120.283" y2="-0.5" transform="matrix(-0.681726 -0.731608 -0.731608 0.681726 298 87.999)" stroke="black" stroke-opacity="0.4"/>
<line y1="-0.5" x2="120.283" y2="-0.5" transform="matrix(-0.681726 -0.731608 -0.731608 0.681726 259 87.999)" stroke="black" stroke-opacity="0.4"/>
<line y1="-0.5" x2="120.283" y2="-0.5" transform="matrix(-0.681726 -0.731608 -0.731608 0.681726 220 87.999)" stroke="black" stroke-opacity="0.4"/>
<line y1="-0.5" x2="120.283" y2="-0.5" transform="matrix(-0.681726 -0.731608 -0.731608 0.681726 181 87.999)" stroke="black" stroke-opacity="0.4"/>
<line y1="-0.5" x2="120.283" y2="-0.5" transform="matrix(-0.681726 -0.731608 -0.731608 0.681726 142 87.999)" stroke="black" stroke-opacity="0.4"/>
<line y1="-0.5" x2="120.283" y2="-0.5" transform="matrix(-0.681726 -0.731608 -0.731608 0.681726 103 87.999)" stroke="black" stroke-opacity="0.4"/>
<line y1="-0.5" x2="120.283" y2="-0.5" transform="matrix(-0.681726 -0.731608 -0.731608 0.681726 64 87.999)" stroke="black" stroke-opacity="0.4"/>
<line y1="-0.5" x2="120.283" y2="-0.5" transform="matrix(-0.681726 -0.731608 -0.731608 0.681726 25 87.999)" stroke="black" stroke-opacity="0.4"/>
</g>
<defs>
<clipPath id="clip0_3_1580">
<rect width="1440" height="28" fill="white"/>
</clipPath>
</defs>
</svg>
